<svg width="126" height="34" viewBox="0 0 126 34" fill="none" xmlns="http://www.w3.org/2000/svg">
<path d="M40.4326 16.1488C40.4326 14.8724 40.714 13.7322 41.2768 12.7284C41.8518 11.7122 42.6287 10.9252 43.6075 10.3675C44.5985 9.79746 45.7057 9.51242 46.9291 9.51242C48.3606 9.51242 49.6146 9.88421 50.6912 10.6278C51.7679 11.3714 52.5203 12.4 52.9485 13.7136H49.9939C49.7002 13.094 49.2843 12.6292 48.7459 12.3194C48.2199 12.0096 47.6081 11.8547 46.9108 11.8547C46.1645 11.8547 45.4977 12.0344 44.9104 12.3938C44.3354 12.7408 43.8827 13.2365 43.5524 13.8809C43.2343 14.5254 43.0753 15.2813 43.0753 16.1488C43.0753 17.0039 43.2343 17.7599 43.5524 18.4167C43.8827 19.0612 44.3354 19.5631 44.9104 19.9225C45.4977 20.2695 46.1645 20.443 46.9108 20.443C47.6081 20.443 48.2199 20.2881 48.7459 19.9782C49.2843 19.656 49.7002 19.1851 49.9939 18.5655H52.9485C52.5203 19.8915 51.7679 20.9263 50.6912 21.6699C49.6268 22.4011 48.3728 22.7667 46.9291 22.7667C45.7057 22.7667 44.5985 22.4878 43.6075 21.9301C42.6287 21.3601 41.8518 20.5731 41.2768 19.5693C40.714 18.5655 40.4326 17.4253 40.4326 16.1488Z" fill="#56B280"/>
<path d="M54.4823 17.4687C54.4823 16.4277 54.6842 15.5044 55.0879 14.6989C55.5039 13.8933 56.0605 13.2737 56.7579 12.8399C57.4675 12.4062 58.2566 12.1893 59.1253 12.1893C59.8838 12.1893 60.5445 12.3442 61.1073 12.654C61.6823 12.9639 62.1411 13.3542 62.4836 13.8252V12.3566H65.0712V22.6551H62.4836V21.1494C62.1533 21.6327 61.6945 22.0355 61.1073 22.3577C60.5322 22.6675 59.8655 22.8224 59.1069 22.8224C58.2505 22.8224 57.4675 22.5993 56.7579 22.1532C56.0605 21.7071 55.5039 21.0812 55.0879 20.2757C54.6842 19.4577 54.4823 18.5221 54.4823 17.4687ZM62.4836 17.5059C62.4836 16.8738 62.3613 16.3347 62.1166 15.8886C61.8719 15.43 61.5416 15.083 61.1256 14.8476C60.7096 14.5997 60.2631 14.4758 59.7859 14.4758C59.3088 14.4758 58.8683 14.5935 58.4646 14.829C58.0609 15.0645 57.7305 15.4115 57.4736 15.87C57.2289 16.3161 57.1066 16.849 57.1066 17.4687C57.1066 18.0883 57.2289 18.6336 57.4736 19.1045C57.7305 19.5631 58.0609 19.9163 58.4646 20.1641C58.8806 20.412 59.321 20.5359 59.7859 20.5359C60.2631 20.5359 60.7096 20.4182 61.1256 20.1827C61.5416 19.9349 61.8719 19.5879 62.1166 19.1417C62.3613 18.6832 62.4836 18.1379 62.4836 17.5059Z" fill="#56B280"/>
<path d="M73.2145 12.2079C74.4257 12.2079 75.4045 12.5983 76.1508 13.379C76.8971 14.1474 77.2702 15.2256 77.2702 16.6136V22.6551H74.701V16.9668C74.701 16.1488 74.4991 15.523 74.0954 15.0892C73.6917 14.6431 73.1411 14.42 72.4437 14.42C71.7341 14.42 71.1714 14.6431 70.7554 15.0892C70.3516 15.523 70.1498 16.1488 70.1498 16.9668V22.6551H67.5805V12.3566H70.1498V13.6393C70.4923 13.1931 70.9267 12.8461 71.4527 12.5983C71.9911 12.338 72.5783 12.2079 73.2145 12.2079Z" fill="#56B280"/>
<path d="M79.0528 17.4687C79.0528 16.4277 79.2547 15.5044 79.6584 14.6989C80.0744 13.8933 80.6372 13.2737 81.3468 12.8399C82.0564 12.4062 82.8455 12.1893 83.7141 12.1893C84.3748 12.1893 85.0049 12.338 85.6044 12.6354C86.2038 12.9205 86.681 13.3047 87.0358 13.788V8.89897H89.6417V22.6551H87.0358V21.1308C86.7177 21.6389 86.2711 22.0479 85.6961 22.3577C85.1211 22.6675 84.4543 22.8224 83.6958 22.8224C82.8394 22.8224 82.0564 22.5993 81.3468 22.1532C80.6372 21.7071 80.0744 21.0812 79.6584 20.2757C79.2547 19.4577 79.0528 18.5221 79.0528 17.4687ZM87.0541 17.5059C87.0541 16.8738 86.9318 16.3347 86.6871 15.8886C86.4424 15.43 86.1121 15.083 85.6961 14.8476C85.2801 14.5997 84.8336 14.4758 84.3564 14.4758C83.8793 14.4758 83.4389 14.5935 83.0351 14.829C82.6314 15.0645 82.301 15.4115 82.0441 15.87C81.7994 16.3161 81.6771 16.849 81.6771 17.4687C81.6771 18.0883 81.7994 18.6336 82.0441 19.1045C82.301 19.5631 82.6314 19.9163 83.0351 20.1641C83.4511 20.412 83.8915 20.5359 84.3564 20.5359C84.8336 20.5359 85.2801 20.4182 85.6961 20.1827C86.1121 19.9349 86.4424 19.5879 86.6871 19.1417C86.9318 18.6832 87.0541 18.1379 87.0541 17.5059Z" fill="#56B280"/>
<path d="M94.7203 8.89897V22.6551H92.151V8.89897H94.7203Z" fill="#56B280"/>
<path d="M106.71 17.2828C106.71 17.6546 106.685 17.9892 106.636 18.2866H99.204C99.2651 19.0302 99.5221 19.6127 99.9747 20.034C100.427 20.4554 100.984 20.6661 101.645 20.6661C102.599 20.6661 103.278 20.2509 103.682 19.4206H106.453C106.159 20.412 105.596 21.2299 104.765 21.8744C103.933 22.5064 102.911 22.8224 101.7 22.8224C100.721 22.8224 99.8402 22.6055 99.0572 22.1718C98.2864 21.7256 97.6808 21.0998 97.2403 20.2943C96.8121 19.4887 96.598 18.5593 96.598 17.5059C96.598 16.4401 96.8121 15.5044 97.2403 14.6989C97.6685 13.8933 98.268 13.2737 99.0388 12.8399C99.8096 12.4062 100.697 12.1893 101.7 12.1893C102.666 12.1893 103.529 12.4 104.287 12.8213C105.058 13.2427 105.652 13.8437 106.068 14.6245C106.496 15.3929 106.71 16.279 106.71 17.2828ZM104.049 16.5392C104.037 15.87 103.798 15.3371 103.333 14.9405C102.868 14.5316 102.299 14.3271 101.626 14.3271C100.99 14.3271 100.452 14.5254 100.011 14.9219C99.5832 15.3061 99.3202 15.8452 99.2223 16.5392H104.049Z" fill="#56B280"/>
<path d="M107.924 17.4687C107.924 16.4277 108.126 15.5044 108.53 14.6989C108.946 13.8933 109.503 13.2737 110.2 12.8399C110.91 12.4062 111.699 12.1893 112.567 12.1893C113.326 12.1893 113.987 12.3442 114.549 12.654C115.124 12.9639 115.583 13.3542 115.926 13.8252V12.3566H118.513V22.6551H115.926V21.1494C115.596 21.6327 115.137 22.0355 114.549 22.3577C113.974 22.6675 113.308 22.8224 112.549 22.8224C111.693 22.8224 110.91 22.5993 110.2 22.1532C109.503 21.7071 108.946 21.0812 108.53 20.2757C108.126 19.4577 107.924 18.5221 107.924 17.4687ZM115.926 17.5059C115.926 16.8738 115.803 16.3347 115.559 15.8886C115.314 15.43 114.984 15.083 114.568 14.8476C114.152 14.5997 113.705 14.4758 113.228 14.4758C112.751 14.4758 112.311 14.5935 111.907 14.829C111.503 15.0645 111.173 15.4115 110.916 15.87C110.671 16.3161 110.549 16.849 110.549 17.4687C110.549 18.0883 110.671 18.6336 110.916 19.1045C111.173 19.5631 111.503 19.9163 111.907 20.1641C112.323 20.412 112.763 20.5359 113.228 20.5359C113.705 20.5359 114.152 20.4182 114.568 20.1827C114.984 19.9349 115.314 19.5879 115.559 19.1417C115.803 18.6832 115.926 18.1379 115.926 17.5059Z" fill="#56B280"/>
<path d="M125.684 14.4944H123.904V22.6551H121.298V14.4944H120.142V12.3566H121.298V11.8361C121.298 10.572 121.653 9.64255 122.362 9.04769C123.072 8.45283 124.143 8.17399 125.574 8.21117V10.4047C124.95 10.3923 124.516 10.4977 124.271 10.7207C124.026 10.9438 123.904 11.3466 123.904 11.929V12.3566H125.684V14.4944Z" fill="#56B280"/>
<g clip-path="url(#clip0_104_367)">
<mask id="mask0_104_367" style="mask-type:alpha" maskUnits="userSpaceOnUse" x="0" y="0" width="35" height="34">
<circle cx="17.2927" cy="16.9764" r="16.8067" fill="#F578A5"/>
</mask>
<g mask="url(#mask0_104_367)">
<circle cx="17.2927" cy="16.9764" r="16.8067" fill="#56B280"/>
<path d="M9.56174 33.5395V33.9072H9.92938H25.5182H25.8859V33.5395V26.9985C25.8859 26.3977 25.4097 25.905 24.8092 25.8845L10.7143 25.404C10.0842 25.3825 9.56174 25.8875 9.56174 26.518V33.5395Z" fill="white" stroke="white" stroke-width="0.735294"/>
<g clip-path="url(#clip1_104_367)">
<path d="M12.7999 11.9714C16.225 7.20917 14.7517 3.33284 14.7558 3.32824C14.6832 3.13412 14.7817 2.91792 14.9758 2.8453C15.0737 2.80867 15.1825 2.81457 15.2759 2.86154C21.4576 5.81954 24.1177 9.63804 24.6271 13.0904C24.8296 14.4317 24.703 15.8021 24.2583 17.0837C23.8507 18.2662 23.1718 19.3368 22.276 20.2097C20.5529 21.8738 18.1447 22.6409 15.7681 21.8632C15.1601 21.6649 14.5864 21.3739 14.0673 21.0005C13.0258 20.253 12.2359 19.207 11.8019 18.0008C11.3414 16.7107 11.3268 15.3035 11.7603 14.0041C11.9998 13.2769 12.3504 12.5912 12.7999 11.9714Z" fill="white"/>
<path d="M14.8311 3.45101C14.6805 3.3086 14.6739 3.07109 14.8163 2.92055C14.9587 2.77001 15.1962 2.76336 15.3468 2.90578C15.3579 2.91625 15.3682 2.92739 15.378 2.93914C15.3918 2.95156 18.3763 6.08003 18.8027 12.1267L18.8072 12.1834C18.8992 13.5966 18.8538 15.0155 18.6715 16.42L20.7123 14.856C20.8832 14.7388 21.1168 14.7823 21.234 14.9533C21.3401 15.108 21.3156 15.3173 21.1767 15.4434L18.5096 17.4811C17.9125 20.9914 15.8076 25.9575 18.594 29.0657C18.7282 29.2237 18.709 29.4605 18.5511 29.5947C18.4007 29.7224 18.1772 29.7119 18.0395 29.5707C14.6981 25.8463 17.1294 21.2325 17.7948 17.2426L17.8036 17.1867C18.0742 15.5989 18.1669 13.986 18.0801 12.3777L15.6812 10.6201C15.5101 10.5031 15.4663 10.2696 15.5832 10.0985C15.7002 9.92742 15.9337 9.88353 16.1048 10.0005C16.1119 10.0053 16.1188 10.0104 16.1255 10.0158L17.9842 11.3841C17.4044 6.14261 14.842 3.46358 14.8311 3.45101Z" fill="#56B280"/>
</g>
</g>
</g>
<defs>
<clipPath id="clip0_104_367">
<rect width="33.6134" height="33.6134" fill="white" transform="translate(0.485962 0.169678)"/>
</clipPath>
<clipPath id="clip1_104_367">
<rect width="20.6274" height="20.6274" fill="white" transform="translate(2.46722 16.6356) rotate(-48)"/>
</clipPath>
</defs>
</svg>
